<?xml version="1.0" encoding="UTF-8" standalone="no"?>
<svg
   xmlns:dc="http://purl.org/dc/elements/1.1/"
   xmlns:cc="http://creativecommons.org/ns#"
   xmlns:rdf="http://www.w3.org/1999/02/22-rdf-syntax-ns#"
   xmlns:svg="http://www.w3.org/2000/svg"
   xmlns="http://www.w3.org/2000/svg"
   viewBox="0 0 793.70135 1122.52"
   height="1122.52"
   width="793.70135"
   xml:space="preserve"
   id="svg2"
   version="1.1"><metadata
     id="metadata8"><rdf:RDF><cc:Work
         rdf:about=""><dc:format>image/svg+xml</dc:format><dc:type
           rdf:resource="http://purl.org/dc/dcmitype/StillImage" /></cc:Work></rdf:RDF></metadata><defs
     id="defs6"><clipPath
       id="clipPath18"
       clipPathUnits="userSpaceOnUse"><path
         id="path16"
         d="M 0,841.89 H 595.276 V 0 H 0 Z" /></clipPath></defs><g
     transform="matrix(1.3333333,0,0,-1.3333333,0,1122.52)"
     id="g10"><g
       id="g12"><g
         clip-path="url(#clipPath18)"
         id="g14"><g
           transform="translate(297.3682,485.4594)"
           id="g20"><path
             id="path22"
             style="fill:#11100e;fill-opacity:1;fill-rule:nonzero;stroke:none"
             d="M 0,0 C 6.406,12.389 7.852,12.928 20.491,11.409 36.059,9.537 47.872,0.457 59.898,-8.334 67.447,-13.853 75.265,-18.727 86.352,-18.747 81.142,-7.387 73.621,1.612 67.479,11.377 57.342,27.495 46.234,43.004 36.117,59.133 32.163,65.435 30.312,63.781 27.122,58.872 13.948,38.6 0.444,18.542 -12.717,-1.738 c -14.174,-21.84 -38.112,-32.047 -61.813,-26.024 -24.525,6.232 -41.142,26.173 -43.333,52.001 -2.224,26.219 18.267,52.546 45.317,58.224 26.208,5.501 54.589,-9.957 63.776,-34.46 2.494,-6.651 -0.549,-11.063 -5.141,-16.396 -3.579,12.905 -8.253,24.169 -18.824,32.269 -15.636,11.982 -37.654,13.043 -54.446,1.814 -16.758,-11.205 -24.349,-31.713 -18.838,-50.89 5.724,-19.916 22.306,-32.865 42.404,-33.674 18.564,-0.747 32.417,6.862 42.442,22.26 16.373,25.147 32.879,50.207 49.36,75.284 0.911,1.385 2.109,2.581 3.767,4.582 9.879,-14.868 19.531,-29.258 29.042,-43.74 13.093,-19.934 26.095,-39.928 39.102,-59.919 4.703,-7.228 4.367,-7.732 -4.187,-8.527 -16.684,-1.551 -31.03,3.853 -43.635,14.465 C 37.414,-1.958 21.11,5.606 0,0" /></g></g></g><text
       id="text26"
       style="font-variant:normal;font-weight:normal;font-stretch:normal;font-size:23px;font-family:GOLDEN;-inkscape-font-specification:GOLDEN;writing-mode:lr-tb;fill:#231f20;fill-opacity:1;fill-rule:nonzero;stroke:none"
       transform="matrix(1,0,0,-1,120.5791,424.4121)"><tspan
         id="tspan24"
         y="0"
         x="0 23.759001 38.019001 57.431 74.128998 93.541 108.376 127.443 146.94701 170.70599 185.9527 205.8477 211.7357 230.1817 249.93871 267.05069 283.74869 302.65469 319.26071">Olubukunola Adebutu</tspan></text>
</g></svg>